<?xml version="1.0" encoding="UTF-8" standalone="no"?>
<svg
   id="b"
   width="312.631"
   height="399.296"
   viewBox="0 0 312.631 399.296"
   version="1.1"
   sodipodi:docname="icon.svg"
   inkscape:version="1.2 (dc2aedaf03, 2022-05-15)"
   inkscape:export-filename="icon.png"
   inkscape:export-xdpi="96"
   inkscape:export-ydpi="96"
   xmlns:inkscape="http://www.inkscape.org/namespaces/inkscape"
   xmlns:sodipodi="http://sodipodi.sourceforge.net/DTD/sodipodi-0.dtd"
   xmlns="http://www.w3.org/2000/svg"
   xmlns:svg="http://www.w3.org/2000/svg">
  <sodipodi:namedview
     id="namedview451"
     pagecolor="#ffffff"
     bordercolor="#000000"
     borderopacity="0.25"
     inkscape:showpageshadow="2"
     inkscape:pageopacity="0.0"
     inkscape:pagecheckerboard="0"
     inkscape:deskcolor="#d1d1d1"
     showgrid="false"
     inkscape:zoom="1.4680626"
     inkscape:cx="9.8769628"
     inkscape:cy="262.25039"
     inkscape:window-width="1920"
     inkscape:window-height="1009"
     inkscape:window-x="1912"
     inkscape:window-y="-8"
     inkscape:window-maximized="1"
     inkscape:current-layer="c" />
  <defs
     id="defs352">
    <style
       id="style350">.g{fill:#bdbdbd;}.h{fill:#fff;}.i{fill:#f4b467;}.j{fill:#211715;}.k{fill:#645d5c;}</style>
    <filter
       inkscape:collect="always"
       style="color-interpolation-filters:sRGB"
       id="filter1387"
       x="-0.057225956"
       y="-0.096194163"
       width="1.1144519"
       height="1.1923883">
      <feGaussianBlur
         inkscape:collect="always"
         stdDeviation="3.0947756"
         id="feGaussianBlur1389" />
    </filter>
  </defs>
  <g
     id="c"
     transform="matrix(0.5018718,0,0,0.5018718,73.309388,87.188745)"
     style="stroke-width:1.99254">
    <circle
       style="opacity:1;fill:#00d327;fill-opacity:0.36289;stroke:#ffffff;stroke-width:1.4426;stroke-linecap:round;stroke-linejoin:bevel;stroke-dasharray:none;stroke-opacity:1"
       id="path2233"
       cx="159.31128"
       cy="228.02145"
       r="241.63109" />
    <g
       id="d"
       style="stroke-width:1.99254">
      <path
         class="k"
         d="m 125.652,91.734 c 0.557,-1.624 1.203,-3.063 1.94,-4.344 -4.217,-0.26 -7.887,-0.556 -10.844,-0.888 0.297,2.99 0.106,6.128 -0.26,8.892 0.072,-0.013 0.144,-0.024 0.216,-0.035 2.723,-0.407 5.654,0.572 7.425,2.518 0.396,-2.3 0.904,-4.336 1.524,-6.143 z"
         id="path354"
         style="stroke-width:1.99254" />
      <path
         class="k"
         d="m 248.663,85.916 c -2.973,0.524 -7.552,0.976 -13.253,1.356 1.968,2.697 3.473,6.005 4.511,10.116 1.792,-1.617 4.449,-2.4 6.933,-2.028 0.393,0.059 0.78,0.146 1.157,0.262 1.042,-2.919 1.58,-6.302 1.787,-9.867 -0.387,0.07 -0.769,0.128 -1.135,0.161 z"
         id="path356"
         style="stroke-width:1.99254" />
      <path
         class="h"
         d="m 239.921,97.388 c 1.792,-1.617 4.449,-2.4 6.933,-2.028 2.484,0.372 4.746,1.869 5.883,3.911 0.803,1.432 1.063,3.062 1.211,4.653 0.544,6.271 -0.692,12.661 -3.534,18.375 -1.384,2.784 -3.188,5.449 -5.697,7.477 -1.927,1.537 -4.286,2.677 -6.793,3.062 0,0 -0.423,0.065 -1.165,0.186 -0.557,2.083 -1.182,3.838 -1.489,4.771 -1.853,5.028 -11.68,21.645 -24.364,29.299 0.052,5.129 0.574,9.059 1.446,14.032 0.819,4.674 0.562,8.852 7.061,11.199 0,0 -0.803,37.634 -37.573,37.634 -36.77,0 -41.989,-36.004 -41.989,-36.004 0.8,-0.34 4,-1.47 4.43,-1.63 6.15,-2.23 6.25,-6.08 6.94,-10.46 0.04,-0.24 0.08,-0.49 0.12,-0.74 0.22,-1.28 0.42,-2.61 0.6,-3.99 0.43,-3.341 0.71,-6.852 0.81,-10.103 -4.922,-2.896 -9.495,-6.93 -13.667,-11.923 -5.926,-7.092 -9.27,-14.983 -11.234,-21.93 -1.379,-0.212 -2.215,-0.341 -2.215,-0.341 -2.507,-0.385 -4.866,-1.525 -6.793,-3.062 -2.509,-2.028 -4.313,-4.693 -5.697,-7.477 -2.842,-5.714 -4.078,-12.104 -3.534,-18.375 0.148,-1.591 0.408,-3.222 1.211,-4.653 1.137,-2.042 3.399,-3.54 5.883,-3.911 2.484,-0.371 5.141,0.411 6.933,2.028 0,0 5.461,-45.799 56.424,-45.799 58.667,0 59.86,45.799 59.86,45.799 z"
         id="path358"
         style="stroke-width:1.99254" />
      <path
         class="i"
         d="m 180.581,2.4 c -41.774,-0.204 -65.673,27.697 -69.107,61.379 -3.394,3.183 -10.925,7.479 -10.82,12.768 0.105,5.289 7.066,8.938 11.856,9.368 10.192,1.796 39.157,2.749 68.076,2.859 28.919,-0.11 57.885,-1.062 68.076,-2.859 4.79,-0.43 11.751,-4.079 11.856,-9.368 0.105,-5.289 -7.425,-9.585 -10.82,-12.768 C 246.264,30.095 222.363,2.193 180.58,2.4 Z"
         id="path360"
         style="stroke-width:1.99254" />
      <path
         class="j"
         d="m 233.01,62.806 c -12.461,-2.872 -25.16,-4.676 -37.925,-5.435 -14.362,-0.854 -28.947,-0.714 -43.203,1.366 -7.873,1.149 -15.614,3.027 -23.127,5.648 -1.223,0.427 -2.036,1.643 -1.676,2.952 0.326,1.188 1.723,2.105 2.952,1.676 13.155,-4.589 26.846,-6.641 40.736,-7.129 13.835,-0.486 27.771,0.051 41.49,1.952 6.543,0.907 13.04,2.114 19.476,3.598 3.006,0.693 4.29,-3.934 1.276,-4.629 v 0 z"
         id="path362"
         style="stroke-width:1.99254" />
      <path
         class="j"
         d="m 180.581,0 c -14.7,-0.041 -29.568,3.399 -41.884,11.661 -11.028,7.398 -19.284,18.041 -24.308,30.282 -2.863,6.974 -4.537,14.349 -5.314,21.836 l 0.703,-1.697 c -4.281,3.955 -11.018,7.375 -11.505,13.902 -0.502,6.731 7.145,11.27 12.909,12.162 0.186,0.029 1.299,0.18 0.868,0.114 0.184,0.028 0.368,0.062 0.552,0.091 0.576,0.092 1.153,0.172 1.731,0.25 1.212,0.163 2.425,0.308 3.642,0.432 2.865,0.294 5.738,0.508 8.611,0.693 7.717,0.496 15.447,0.777 23.176,0.989 18.394,0.505 36.79,0.555 55.187,0.158 8.148,-0.176 16.296,-0.423 24.436,-0.846 5.827,-0.303 11.673,-0.646 17.459,-1.426 0.546,-0.074 1.091,-0.149 1.635,-0.235 0.216,-0.034 0.431,-0.073 0.647,-0.106 -0.058,0.009 -0.38,0.056 -0.049,0.01 0.353,-0.049 0.707,-0.088 1.058,-0.144 1.537,-0.246 2.999,-0.748 4.424,-1.364 2.87,-1.242 5.721,-3.253 7.233,-6.065 3.612,-6.721 -2.414,-12.193 -7.257,-16.02 -1.065,-0.841 -2.14,-1.673 -3.137,-2.594 l 0.703,1.697 C 250.734,50.619 246.401,37.688 238.476,26.995 230.398,16.096 219.19,8.092 206.312,3.84 198.039,1.108 189.274,-0.025 180.581,0 c -3.088,0.009 -3.094,4.809 0,4.8 13.035,-0.037 26.093,2.76 37.296,9.612 9.806,5.997 17.502,14.774 22.571,25.055 2.537,5.146 4.373,10.679 5.584,16.335 0.325,1.517 0.604,3.044 0.839,4.577 0.09,0.588 0.166,1.126 0.235,1.684 0.114,0.921 0.047,2.116 0.521,2.927 0.726,1.241 2.405,2.205 3.513,3.08 1.222,0.966 2.444,1.938 3.585,3 1.094,1.018 2.14,2.101 2.854,3.426 0.52,0.966 0.693,1.836 0.421,2.864 -0.638,2.411 -3.299,4.165 -5.59,5.137 -1.474,0.625 -3.02,0.895 -4.384,1.103 -0.438,0.067 -0.874,0.146 -1.312,0.212 -0.205,0.03 -0.41,0.059 -0.616,0.088 0.514,-0.072 -0.447,0.057 -0.572,0.072 -2.648,0.327 -5.309,0.553 -7.97,0.749 -16.554,1.222 -33.198,1.464 -49.79,1.607 -17.952,0.155 -35.94,-0.135 -53.873,-0.997 -6.086,-0.292 -12.195,-0.614 -18.245,-1.36 -0.261,-0.032 -0.521,-0.065 -0.782,-0.1 0.458,0.061 -0.153,-0.023 -0.305,-0.046 -0.472,-0.069 -0.941,-0.154 -1.413,-0.226 -1.32,-0.202 -2.795,-0.458 -4.234,-1.044 -2.289,-0.932 -5.011,-2.683 -5.7,-5.056 -0.313,-1.077 -0.162,-1.997 0.381,-3.004 0.688,-1.277 1.683,-2.324 2.732,-3.311 1.176,-1.107 2.441,-2.114 3.707,-3.115 1.087,-0.859 2.494,-1.716 3.325,-2.837 0.876,-1.182 0.726,-3.432 0.945,-4.866 0.228,-1.487 0.498,-2.968 0.81,-4.44 0.617,-2.905 1.401,-5.775 2.358,-8.586 3.677,-10.806 10.112,-20.605 18.9,-27.979 9.417,-7.901 21.373,-12.523 33.538,-13.972 3.541,-0.422 7.105,-0.601 10.67,-0.591 3.089,0.009 3.093,-4.791 0,-4.8 z"
         id="path364"
         style="stroke-width:1.99254" />
      <path
         class="j"
         d="m 208.512,167.593 c 0.111,5.763 1.048,11.419 1.98,17.094 0.315,1.917 0.826,3.867 1.955,5.48 1.562,2.232 3.816,3.532 6.327,4.473 1.214,0.455 2.631,-0.506 2.952,-1.676 0.37,-1.345 -0.458,-2.496 -1.676,-2.952 -1.642,-0.615 -3.104,-1.555 -3.879,-2.931 -0.347,-0.617 -0.502,-1.09 -0.715,-1.961 -0.203,-0.831 -0.335,-1.678 -0.462,-2.524 -0.757,-5.008 -1.584,-9.921 -1.682,-15.001 -0.06,-3.085 -4.86,-3.095 -4.8,0 v 0 z"
         id="path366"
         style="stroke-width:1.99254" />
      <path
         class="j"
         d="m 140.488,196.269 c 2.244,-0.927 4.647,-1.524 6.803,-2.655 2.57,-1.349 4.402,-3.53 5.307,-6.278 0.852,-2.59 1.083,-5.511 1.47,-8.197 0.579,-4.013 0.948,-8.052 1.082,-12.104 0.102,-3.09 -4.698,-3.086 -4.8,0 -0.115,3.468 -0.378,6.94 -0.847,10.379 -0.356,2.606 -0.652,5.339 -1.314,7.891 -0.267,1.031 -0.443,1.618 -1.143,2.512 -0.498,0.637 -1.587,1.375 -2.506,1.818 -1.704,0.821 -3.581,1.283 -5.328,2.006 -1.197,0.495 -2.05,1.592 -1.676,2.952 0.311,1.132 1.747,2.174 2.952,1.676 z"
         id="path368"
         style="stroke-width:1.99254" />
      <path
         class="g"
         d="m 182.292,223.131 c 2.799,-3.919 10.666,-15.172 12.415,-17.646 3.072,-4.345 10.702,-17.154 15.521,-25.353 5.715,2.17 12.857,4.88 12.857,4.88 20.974,8.507 36.386,16.533 54.305,26.278 3.141,1.708 5.979,4.38 8.593,6.82 6.299,5.879 13.152,25.2 14.067,37.233 3.844,50.523 7.589,93.057 10.191,141.552 -0.249,0 -0.498,0 -0.498,0 0,0 -105.811,0 -211.583,0 0.014,-27.515 0.125,-99.065 -0.072,-107.346 -0.037,-0.296 -0.453,-6.362 -1.049,-15.2 -9.502,2.123 -26.121,8.989 -35.532,11.123 -8.941,2.028 -18.457,4.107 -27.884,3.731 -11.49,-0.458 -21.745,-7.921 -27.099,-17.881 -6.62,-12.314 -3.63,-19.415 -2.211,-32.186 0.84,-7.559 4.485,-16.218 5.724,-22.854 2.304,-12.349 12.733,-42.637 14.153,-47.133 3.359,-10.638 13.086,-32.659 15.537,-38.213 13.597,4.41 30.39,11.104 43.476,16.224 -2.324,9.812 -11.982,48.165 -14.082,56.423 -0.371,1.459 -1.198,4.659 -2.225,8.62 5.333,-2.858 11.736,-6.29 11.736,-6.29 11.758,-5.879 16.105,-6.81 26.463,-10.449 5.671,-1.993 22.956,-7.839 34.714,-10.638 l 14.144,-3.676 c 2.935,5.591 7.005,12.644 8.547,15.363 4.334,7.643 12.562,21.298 17.881,28.577 l 1.911,-1.96 z"
         id="path370"
         style="stroke-width:1.99254" />
      <path
         class="j"
         d="m 222.448,187.327 c 15.339,6.231 30.216,13.443 44.819,21.23 6.655,3.549 13.726,6.888 18.551,12.924 0.181,0.226 0.531,0.713 0.852,1.187 0.372,0.549 0.725,1.11 1.066,1.679 0.781,1.304 1.49,2.649 2.154,4.015 1.434,2.952 2.635,6.009 3.691,9.115 2.172,6.384 3.692,12.904 4.203,19.605 0.7,9.177 1.417,18.353 2.138,27.529 1.376,17.513 2.768,35.024 4.059,52.544 1.291,17.52 2.485,35.19 3.48,52.801 0.125,2.215 0.247,4.431 0.367,6.647 0.166,3.072 4.967,3.092 4.8,0 -0.967,-17.941 -2.136,-35.87 -3.433,-53.79 -1.285,-17.761 -2.687,-35.513 -4.084,-53.266 -0.735,-9.34 -1.468,-18.681 -2.186,-28.022 -0.299,-3.889 -0.515,-7.782 -1.168,-11.632 -0.573,-3.379 -1.394,-6.715 -2.371,-9.999 -1.918,-6.447 -4.363,-12.997 -7.961,-18.711 -1.584,-2.516 -3.475,-4.556 -5.666,-6.549 -1.627,-1.48 -3.313,-2.911 -5.127,-4.159 -1.732,-1.192 -3.634,-2.129 -5.481,-3.127 -14.665,-7.93 -29.529,-15.446 -44.893,-21.939 -2.172,-0.918 -4.35,-1.822 -6.534,-2.709 -1.201,-0.488 -2.637,0.53 -2.952,1.676 -0.377,1.373 0.47,2.462 1.676,2.952 v 0 z"
         id="path372"
         style="stroke-width:1.99254" />
      <path
         class="j"
         d="m 100.561,396.896 c 0.008,-16.187 0.029,-32.373 0.038,-48.56 0.009,-16.187 0.027,-32.45 -0.031,-48.675 -0.012,-3.415 0.109,-6.872 -0.095,-10.283 -0.183,-3.067 -0.433,-6.133 -0.644,-9.198 -0.96,-13.981 -1.914,-27.962 -2.894,-41.941 -0.818,-11.663 -1.539,-23.344 -2.603,-34.988 -0.05,-0.552 -0.102,-1.105 -0.164,-1.656 -0.144,-1.288 -1,-2.4 -2.4,-2.4 -1.185,0 -2.545,1.104 -2.4,2.4 1.16,10.352 1.649,20.811 2.384,31.198 1.026,14.51 2.019,29.022 3.014,43.535 0.449,6.55 0.952,13.038 0.986,19.602 0.081,15.247 0.056,30.494 0.05,45.741 -0.007,16.891 -0.026,33.781 -0.039,50.672 -0.001,1.518 -0.002,3.036 -0.003,4.555 -0.002,3.089 4.798,3.094 4.8,0 v 0 z"
         id="path374"
         style="stroke-width:1.99254" />
      <path
         class="j"
         d="m 274.564,214.453 c -0.898,8.132 -1.905,16.253 -2.867,24.377 -1.468,12.397 -2.939,24.793 -4.415,37.189 -0.464,3.897 -0.927,7.794 -1.396,11.69 -0.264,2.193 -0.26,4.359 -0.275,6.57 -0.094,13.532 -0.099,27.064 -0.122,40.596 -0.031,18.499 -0.05,36.998 -0.068,55.496 -0.002,2.124 -0.004,4.247 -0.006,6.371 -0.003,3.089 4.797,3.094 4.8,0 0.018,-18.452 0.035,-36.904 0.063,-55.356 0.022,-14.669 0.036,-29.338 0.114,-44.006 0.015,-2.74 -0.199,-5.608 0.133,-8.333 0.384,-3.155 0.757,-6.311 1.133,-9.467 1.438,-12.063 2.87,-24.127 4.299,-36.192 1.103,-9.31 2.221,-18.618 3.293,-27.931 0.038,-0.334 0.077,-0.669 0.114,-1.003 0.143,-1.29 -1.205,-2.4 -2.4,-2.4 -1.416,0 -2.257,1.106 -2.4,2.4 v 0 z"
         id="path376"
         style="stroke-width:1.99254" />
      <path
         class="j"
         d="m 178.517,225.091 c 0,5.378 0.021,10.755 0.035,16.133 0.028,10.499 0.059,20.997 0.091,31.496 0.04,13.398 0.081,26.797 0.122,40.195 0.043,14.077 0.087,28.154 0.13,42.23 0.039,12.534 0.077,25.068 0.115,37.602 0.004,1.332 0.008,2.664 0.012,3.996 0.009,3.088 4.809,3.094 4.8,0 -0.036,-12.189 -0.074,-24.378 -0.112,-36.568 -0.043,-14.006 -0.087,-28.013 -0.13,-42.019 -0.042,-13.602 -0.084,-27.205 -0.125,-40.807 -0.033,-10.977 -0.066,-21.954 -0.096,-32.931 -0.017,-6.13 -0.037,-12.261 -0.044,-18.391 0,-0.312 0,-0.624 0,-0.936 0,-3.089 -4.8,-3.094 -4.8,0 v 0 z"
         id="path378"
         style="stroke-width:1.99254" />
      <path
         class="g"
         d="m 219.385,179.962 c -2.002,-1.654 -4.24,-3.273 -6.371,-4.588 -3.678,6.315 -13.532,23.072 -17.724,29.266 1.796,1.127 2.918,1.839 2.918,1.839 3.411,2.165 24.298,8.281 26.922,7.694 0.154,-7.696 0.155,-23.376 -0.125,-28.555 -1.134,-1.62 -3.207,-3.663 -5.62,-5.656 z"
         id="path380"
         style="stroke-width:1.99254" />
      <path
         class="g"
         d="m 146.2,179.476 c 1.637,-1.316 3.404,-2.593 5.126,-3.694 2.163,5.073 9.056,16.995 11.175,20.731 1.404,2.476 3.217,5.582 5.206,8.899 -1.648,1.046 -2.672,1.696 -2.672,1.696 -3.411,2.165 -22.553,7.652 -25.177,7.064 -0.154,-7.696 -0.155,-23.376 0.125,-28.555 1.227,-1.752 3.55,-3.998 6.217,-6.142 z"
         id="path382"
         style="stroke-width:1.99254" />
      <path
         class="j"
         d="m 148.831,175.998 c 2.681,6.545 6.453,12.696 9.946,18.829 3.798,6.669 7.677,13.288 11.758,19.789 2.487,3.961 5.02,7.905 7.774,11.687 0.762,1.046 2.085,1.562 3.284,0.861 1.033,-0.604 1.628,-2.23 0.861,-3.284 -5.028,-6.904 -9.464,-14.264 -13.823,-21.602 -3.511,-5.911 -6.915,-11.895 -10.226,-17.921 -1.022,-1.86 -2.032,-3.728 -3.003,-5.616 -0.396,-0.77 -0.786,-1.543 -1.162,-2.323 -0.171,-0.356 -0.34,-0.712 -0.504,-1.071 -0.074,-0.163 -0.147,-0.326 -0.22,-0.489 -0.213,-0.477 0.141,0.352 -0.058,-0.136 -0.491,-1.199 -1.595,-2.049 -2.952,-1.676 -1.135,0.312 -2.171,1.746 -1.676,2.952 v 0 z"
         id="path384"
         style="stroke-width:1.99254" />
      <path
         class="j"
         d="m 210.95,174.149 c -4.04,6.936 -8.123,13.849 -12.309,20.699 -3.465,5.671 -7.187,11.104 -11.001,16.541 -2.466,3.515 -4.925,7.036 -7.42,10.531 -0.753,1.056 -0.186,2.671 0.861,3.284 1.206,0.705 2.528,0.197 3.284,-0.861 4.156,-5.823 8.237,-11.699 12.349,-17.553 4.417,-6.289 8.237,-13.039 12.158,-19.641 2.089,-3.517 4.164,-7.042 6.223,-10.577 1.558,-2.675 -2.589,-5.094 -4.145,-2.423 z"
         id="path386"
         style="stroke-width:1.99254" />
      <path
         class="j"
         d="m 149.976,173.799 c -3.176,2.063 -6.236,4.396 -8.956,7.037 -1.086,1.054 -2.351,2.248 -3.109,3.571 -0.541,0.944 -0.386,2.449 -0.417,3.522 -0.163,5.655 -0.154,11.318 -0.132,16.975 0.012,3.09 0.036,6.18 0.097,9.27 0.019,0.988 0.726,2.113 1.762,2.314 1.841,0.358 3.813,-0.134 5.617,-0.506 2.629,-0.541 5.231,-1.226 7.813,-1.955 2.694,-0.76 5.375,-1.579 8.018,-2.504 1.871,-0.655 3.884,-1.293 5.577,-2.342 2.622,-1.623 0.214,-5.777 -2.423,-4.145 -0.285,0.176 -0.581,0.329 -0.882,0.474 -0.141,0.068 -0.285,0.13 -0.427,0.197 -0.611,0.288 0.171,-0.061 -0.244,0.107 -0.95,0.385 -1.91,0.74 -2.877,1.079 -2.552,0.893 -5.14,1.686 -7.741,2.425 -2.492,0.708 -5.001,1.371 -7.534,1.916 -0.955,0.205 -1.913,0.392 -2.88,0.534 0.739,-0.108 -0.313,0.027 -0.524,0.037 -0.504,0.023 -0.839,-0.069 -0.217,0.052 l 1.762,2.314 c -0.186,-9.492 -0.372,-19.07 0.125,-28.555 l -0.328,1.211 c 2.526,-3.52 6.666,-6.497 10.344,-8.886 2.581,-1.677 0.178,-5.834 -2.423,-4.145 v 0 z"
         id="path388"
         style="stroke-width:1.99254" />
      <path
         class="j"
         d="m 212.589,177.944 c 3.678,2.389 7.818,5.366 10.344,8.886 l -0.328,-1.211 c 0.497,9.485 0.311,19.063 0.125,28.555 l 1.762,-2.314 c -0.267,0.052 0.758,0.033 0.26,-0.047 -0.128,-0.021 -0.279,-0.003 -0.41,-0.009 -0.167,-0.007 -0.332,-0.031 -0.498,-0.042 -0.677,-0.045 0.368,0.065 -0.099,-0.011 -1.035,-0.17 -2.062,-0.372 -3.086,-0.601 -2.755,-0.617 -5.483,-1.358 -8.194,-2.143 -2.782,-0.806 -5.552,-1.665 -8.286,-2.621 -1.076,-0.376 -2.144,-0.772 -3.201,-1.199 -0.42,-0.17 0.406,0.195 -0.21,-0.091 -0.179,-0.083 -0.36,-0.162 -0.538,-0.248 -0.277,-0.135 -0.55,-0.276 -0.812,-0.438 -2.634,-1.631 -5.047,2.52 -2.423,4.145 1.287,0.797 2.777,1.311 4.187,1.839 2.046,0.766 4.123,1.448 6.207,2.099 4.394,1.374 8.848,2.671 13.364,3.579 1.622,0.326 3.36,0.739 5.013,0.418 1.039,-0.202 1.742,-1.318 1.762,-2.314 0.113,-5.764 0.123,-11.532 0.092,-17.297 -0.015,-2.697 -0.039,-5.395 -0.105,-8.092 -0.024,-0.969 -0.031,-1.945 -0.099,-2.912 -0.116,-1.644 -1.329,-2.837 -2.418,-3.992 -2.929,-3.106 -6.417,-5.761 -9.989,-8.081 -2.598,-1.688 -5.007,2.466 -2.423,4.145 v 0 z"
         id="path390"
         style="stroke-width:1.99254" />
      <path
         class="j"
         d="m 79.844,207.986 c 4.164,-2.076 8.383,-4.029 12.743,-5.659 3.777,-1.412 7.622,-2.635 11.433,-3.951 7.193,-2.484 14.4,-4.914 21.68,-7.136 4.879,-1.489 9.785,-2.911 14.747,-4.099 3.003,-0.719 1.731,-5.349 -1.276,-4.629 -8.791,2.105 -17.435,4.853 -26.015,7.685 -7.008,2.314 -14.036,4.644 -20.967,7.176 -5.054,1.846 -9.954,4.067 -14.768,6.467 -2.765,1.379 -0.336,5.52 2.423,4.145 v 0 z"
         id="path392"
         style="stroke-width:1.99254" />
      <path
         class="j"
         d="m 74.321,243.298 c 0.418,0.23 0.824,0.479 1.213,0.755 0.088,0.062 0.175,0.146 0.27,0.197 -0.142,-0.075 -0.42,-0.333 -0.12,-0.089 0.187,0.152 0.37,0.31 0.548,0.474 0.32,0.294 0.625,0.606 0.913,0.932 0.144,0.162 0.28,0.331 0.418,0.498 0.309,0.373 -0.338,-0.469 -0.059,-0.074 0.063,0.088 0.128,0.175 0.19,0.264 0.515,0.731 0.96,1.509 1.345,2.316 0.095,0.199 0.184,0.4 0.274,0.601 0.195,0.436 -0.164,-0.412 -0.062,-0.146 0.04,0.103 0.083,0.205 0.123,0.309 0.177,0.457 0.337,0.92 0.486,1.387 0.38,1.195 1.685,2.086 2.952,1.676 1.198,-0.388 2.084,-1.671 1.676,-2.952 -1.342,-4.219 -3.779,-8.11 -7.746,-10.292 -1.1,-0.605 -2.668,-0.305 -3.284,0.861 -0.595,1.125 -0.314,2.637 0.861,3.284 v 0 z"
         id="path394"
         style="stroke-width:1.99254" />
      <path
         class="j"
         d="m 208.184,262.503 c 8.7,0.042 17.4,0.128 26.1,0.202 4.202,0.036 8.404,0.072 12.606,0.101 0.903,0.006 3.473,-0.413 3.872,0.587 0.119,0.299 0,0.986 -0.009,1.376 -0.016,0.723 -0.032,1.447 -0.049,2.17 -0.034,1.472 -0.069,2.943 -0.097,4.415 -0.013,0.658 0.133,1.002 -0.486,1.316 -0.517,0.262 -1.24,0.146 -1.806,0.145 -1.353,-0.002 -2.705,-0.007 -4.058,-0.013 -3.675,-0.015 -7.35,-0.034 -11.025,-0.053 -7.49,-0.039 -14.979,-0.085 -22.469,-0.105 -0.889,-0.002 -3.087,0.379 -3.66,-0.421 -0.336,-0.469 -0.095,-2.129 -0.095,-2.829 v -5.082 c 0,-1.039 -0.154,-1.758 1.176,-1.81 3.079,-0.119 3.094,-4.92 0,-4.8 -3.128,0.121 -5.84,2.189 -5.976,5.458 -0.045,1.095 0,2.202 0,3.298 0,3.279 -0.773,7.53 2.222,9.764 1.747,1.303 3.764,1.215 5.82,1.22 1.733,0.004 3.466,0.011 5.199,0.018 4.445,0.019 8.889,0.042 13.334,0.065 4.319,0.022 8.638,0.046 12.957,0.065 1.709,0.008 3.418,0.015 5.128,0.02 1.841,0.005 3.709,0.149 5.417,-0.679 1.129,-0.547 2.069,-1.47 2.602,-2.606 0.712,-1.517 0.525,-3.312 0.561,-4.945 0.034,-1.537 0.072,-3.075 0.105,-4.612 0.032,-1.502 0.006,-2.893 -0.883,-4.182 -1.67,-2.421 -4.318,-2.558 -6.984,-2.576 -2.169,-0.015 -4.338,-0.031 -6.506,-0.049 -10.999,-0.089 -21.997,-0.206 -32.996,-0.259 -3.089,-0.015 -3.093,4.785 0,4.8 z"
         id="path396"
         style="stroke-width:1.99254" />
      <path
         class="j"
         d="m 248.661,285.983 c -0.007,5.056 -0.138,10.114 -0.194,15.17 -0.034,3.124 -0.065,6.249 -0.058,9.373 0.002,0.919 0.361,2.461 -0.761,2.858 -0.983,0.348 -2.539,0.062 -3.586,0.063 -7.049,0.007 -14.097,0.016 -21.146,0.024 -3.337,0.004 -6.675,0.008 -10.012,0.011 -0.65,0 -1.3,10e-4 -1.95,0.002 -0.551,0 -1.252,0.128 -1.77,-0.058 -1.249,-0.449 -0.762,-2.33 -0.735,-3.345 0.209,-7.758 0.66,-15.522 0.671,-23.284 0.004,-3.089 -4.796,-3.093 -4.8,0 -0.01,7.43 -0.431,14.864 -0.644,22.29 -0.058,2.014 -0.35,4.158 0.605,6.016 1.05,2.041 3.159,3.115 5.389,3.183 3.213,0.098 6.445,-0.006 9.659,-0.01 7.679,-0.009 15.358,-0.018 23.038,-0.026 3.542,-0.004 7.845,0.654 9.993,-2.888 0.974,-1.607 0.848,-3.416 0.846,-5.211 -10e-4,-1.617 0.007,-3.233 0.02,-4.85 0.049,-6.439 0.225,-12.879 0.233,-19.318 0.004,-3.089 -4.796,-3.094 -4.8,0 v 0 z"
         id="path398"
         style="stroke-width:1.99254" />
      <path
         class="j"
         d="m 158.413,257.703 c -9.819,0.048 -19.639,0.148 -29.458,0.23 -2.324,0.019 -4.649,0.039 -6.973,0.056 -2.061,0.016 -4.368,-0.245 -6.391,0.187 -1.372,0.293 -2.622,1.056 -3.477,2.168 -1.039,1.352 -1.106,2.79 -1.071,4.425 0.031,1.464 0.067,2.927 0.1,4.39 0.038,1.692 -0.171,3.597 0.566,5.167 1.875,3.996 6.753,3.291 10.394,3.277 4.174,-0.016 8.348,-0.038 12.522,-0.06 7.894,-0.041 15.797,0.034 23.689,-0.103 3.175,-0.055 5.942,-2.155 6.074,-5.467 0.057,-1.421 0,-2.855 0,-4.277 0,-1.481 0.058,-2.974 0,-4.454 -0.129,-3.308 -2.78,-5.416 -5.976,-5.54 -3.089,-0.119 -3.084,4.681 0,4.8 1.164,0.045 1.176,0.56 1.176,1.482 v 4.21 c 0,1.19 0.129,2.461 0,3.645 -0.093,0.854 -1.09,0.8 -1.933,0.801 -7.147,0.008 -14.293,0.057 -21.44,0.094 -3.874,0.02 -7.749,0.041 -11.623,0.058 -1.488,0.007 -2.976,0.013 -4.464,0.018 -0.983,0.003 -2.766,0.33 -3.653,-0.14 -0.609,-0.323 -0.473,-0.644 -0.486,-1.316 -0.028,-1.472 -0.063,-2.944 -0.097,-4.415 -0.017,-0.723 -0.033,-1.447 -0.049,-2.17 -0.009,-0.426 -0.139,-1.051 -0.009,-1.376 0.213,-0.535 0.921,-0.56 1.465,-0.571 3.883,-0.081 7.771,-0.056 11.655,-0.088 9.819,-0.082 19.638,-0.182 29.458,-0.23 3.088,-0.015 3.094,-4.815 0,-4.8 z"
         id="path400"
         style="stroke-width:1.99254" />
      <path
         class="j"
         d="m 113.135,285.983 c 0.007,5.595 0.156,11.192 0.211,16.787 0.031,3.12 -0.042,6.248 0.033,9.367 0.055,2.303 1.18,4.4 3.277,5.459 1.621,0.819 3.451,0.65 5.211,0.651 7.503,0.008 15.006,0.017 22.509,0.025 3.504,0.004 7.008,0.008 10.513,0.011 1.827,0.002 3.642,0.109 5.273,-0.879 2.049,-1.241 2.878,-3.444 2.824,-5.748 -0.193,-8.285 -0.699,-16.572 -0.711,-24.86 -0.004,-3.088 -4.804,-3.094 -4.8,0 0.01,6.855 0.382,13.714 0.592,20.565 0.026,0.852 0.051,1.704 0.074,2.556 0.022,0.792 0.258,1.917 0.048,2.686 -0.298,1.096 -1.546,0.882 -2.427,0.881 -3.112,-0.003 -6.223,-0.006 -9.335,-0.01 -7.203,-0.008 -14.407,-0.017 -21.61,-0.025 -1.445,-0.002 -2.89,-0.003 -4.335,-0.004 -0.954,0 -2.085,0.139 -2.298,-1.03 -0.218,-1.2 0.005,-2.645 0.002,-3.866 -0.005,-1.607 -0.016,-3.213 -0.031,-4.82 -0.054,-5.915 -0.212,-11.832 -0.22,-17.747 -0.004,-3.088 -4.804,-3.094 -4.8,0 v 0 z"
         id="path402"
         style="stroke-width:1.99254" />
      <path
         class="j"
         d="m 98.28,399.296 c 10.825,0 21.65,0 32.474,0 h 178.989 c 3.089,0 3.094,-4.8 0,-4.8 H 98.28 c -3.089,0 -3.094,4.8 0,4.8 z"
         id="path404"
         style="stroke-width:1.99254" />
      <path
         class="j"
         d="m 115.76,377.077 c 6.714,0 13.428,0.004 20.141,0.007 10.055,0.005 20.11,0.011 30.165,0.016 11.183,0.007 22.365,0.013 33.548,0.02 9.921,0.006 19.843,0.012 29.764,0.017 6.445,0.003 12.89,0.007 19.335,0.008 0.439,0 0.878,0 1.317,0 3.089,0 3.094,-4.8 0,-4.8 -5.847,0 -11.695,-0.004 -17.542,-0.007 -9.611,-0.005 -19.222,-0.011 -28.833,-0.016 -11.156,-0.007 -22.313,-0.013 -33.469,-0.02 -10.314,-0.006 -20.627,-0.012 -30.941,-0.017 -7.259,-0.004 -14.519,-0.008 -21.778,-0.008 -0.569,0 -1.139,0 -1.708,0 -3.089,0 -3.094,4.8 0,4.8 v 0 z"
         id="path406"
         style="stroke-width:1.99254" />
      <path
         class="j"
         d="m 247.405,85.831 c -0.052,0.854 -0.122,1.706 -0.217,2.556 -0.026,0.235 -0.038,0.483 -0.086,0.715 l 0.039,-0.284 c -0.016,0.118 -0.033,0.235 -0.05,0.352 -0.06,0.407 -0.125,0.812 -0.198,1.217 -0.278,1.544 -0.66,3.068 -1.179,4.55 -0.416,1.186 0.472,2.678 1.676,2.952 1.341,0.305 2.507,-0.406 2.952,-1.676 1.166,-3.326 1.649,-6.877 1.863,-10.382 0.077,-1.255 -1.159,-2.456 -2.4,-2.4 -1.366,0.061 -2.318,1.055 -2.4,2.4 z"
         id="path408"
         style="stroke-width:1.99254" />
      <path
         class="j"
         d="m 242.236,96.75 c -0.947,-3.715 -2.392,-7.381 -4.621,-10.521 -0.725,-1.021 -2.128,-1.606 -3.284,-0.861 -1.014,0.653 -1.638,2.189 -0.861,3.284 0.977,1.377 1.804,2.851 2.491,4.393 0.043,0.097 0.085,0.195 0.128,0.292 0.133,0.296 -0.175,-0.432 -0.054,-0.128 0.08,0.202 0.164,0.403 0.242,0.606 0.171,0.442 0.333,0.887 0.485,1.336 0.321,0.947 0.598,1.907 0.845,2.876 0.31,1.217 1.735,2.07 2.952,1.676 1.257,-0.407 2.009,-1.648 1.676,-2.952 v 0 z"
         id="path410"
         style="stroke-width:1.99254" />
      <path
         class="j"
         d="m 126.523,98.026 c 0.313,-1.687 0.703,-3.361 1.225,-4.997 0.232,-0.727 0.496,-1.44 0.776,-2.149 0.158,-0.4 -0.242,0.552 0.023,-0.054 0.071,-0.163 0.145,-0.325 0.219,-0.487 0.146,-0.315 0.3,-0.627 0.46,-0.935 0.575,-1.115 0.326,-2.657 -0.861,-3.284 -1.1,-0.581 -2.669,-0.33 -3.284,0.861 -1.582,3.065 -2.559,6.388 -3.186,9.769 -0.12,0.645 -0.099,1.266 0.242,1.849 0.291,0.498 0.862,0.973 1.434,1.103 1.178,0.268 2.708,-0.356 2.952,-1.676 z"
         id="path412"
         style="stroke-width:1.99254" />
      <path
         class="j"
         d="m 241.618,99.085 c 2.474,-2.119 6.664,-1.843 8.672,0.801 1.221,1.608 1.301,3.902 1.364,5.832 0.069,2.103 -0.04,4.225 -0.398,6.299 -1.325,7.683 -5.409,17.044 -13.971,18.506 -1.279,0.218 -1.995,1.792 -1.676,2.952 0.372,1.353 1.67,1.895 2.952,1.676 8.616,-1.471 13.753,-9.514 16.205,-17.26 1.325,-4.187 1.911,-8.686 1.647,-13.072 -0.256,-4.245 -1.474,-8.255 -5.372,-10.492 -4.135,-2.374 -9.248,-1.695 -12.818,1.363 -0.985,0.844 -0.867,2.527 0,3.394 0.976,0.976 2.407,0.846 3.394,0 v 0 z"
         id="path414"
         style="stroke-width:1.99254" />
      <path
         class="j"
         d="m 235.434,126.387 c -0.082,2.554 -0.68,5.042 -1.411,7.481 -0.272,0.908 -0.571,1.808 -0.873,2.706 -0.084,0.25 -0.17,0.499 -0.257,0.747 -0.035,0.098 -0.079,0.193 -0.115,0.291 -0.151,0.413 0.236,-0.516 0.027,-0.064 -1.114,2.406 -2.395,4.715 -3.802,6.962 -4.158,6.638 -9.235,12.936 -15.404,17.812 -3.434,2.715 -7.303,4.905 -11.576,5.885 -3.01,0.69 -1.736,5.319 1.276,4.629 8.586,-1.969 15.778,-8.145 21.453,-14.609 4.677,-5.328 9.058,-11.361 12.012,-17.84 1.967,-4.313 3.318,-9.266 3.471,-14 0.1,-3.09 -4.701,-3.086 -4.8,0 v 0 z"
         id="path416"
         style="stroke-width:1.99254" />
      <path
         class="j"
         d="m 125.334,95.691 c -3.081,-2.639 -7.409,-3.612 -11.247,-2.094 -4.161,1.646 -6.25,5.134 -6.782,9.457 -1.02,8.295 1.196,17.723 6.195,24.478 2.828,3.822 6.721,6.805 11.497,7.621 1.276,0.218 2.585,-0.339 2.952,-1.676 0.317,-1.153 -0.392,-2.733 -1.676,-2.952 -8.562,-1.462 -12.646,-10.823 -13.971,-18.506 -0.358,-2.075 -0.467,-4.196 -0.398,-6.3 0.063,-1.928 0.145,-4.226 1.364,-5.832 2.008,-2.644 6.198,-2.921 8.672,-0.801 0.984,0.843 2.428,0.966 3.394,0 0.863,-0.863 0.989,-2.547 0,-3.394 v 0 z"
         id="path418"
         style="stroke-width:1.99254" />
      <path
         class="j"
         d="m 123.669,125.5 c 1.483,8.562 4.231,16.982 8.772,24.43 5.044,8.273 12.373,15.742 21.013,20.243 4.557,2.374 9.432,3.826 14.539,4.353 1.291,0.133 2.4,-1.198 2.4,-2.4 0,-1.409 -1.105,-2.266 -2.4,-2.4 -17.475,-1.804 -31.092,-17.453 -36.576,-33.203 -1.394,-4.002 -2.397,-8.126 -3.12,-12.3 -0.221,-1.278 -1.79,-1.996 -2.952,-1.676 -1.351,0.371 -1.898,1.671 -1.676,2.952 v 0 z"
         id="path420"
         style="stroke-width:1.99254" />
      <g
         id="e"
         style="stroke-width:1.99254">
        <path
           class="h"
           d="m 52.323,117.231 c 3.07,-7.136 6.466,-17.763 6.548,-21.409 0.095,-4.172 1.019,-9.006 2.044,-13.029 0.978,-3.84 2.508,-6.418 6.451,-8.357 3.532,-1.736 7.217,0.795 10.029,3.253 0.795,-2.373 4.264,-4.557 6.66,-5.086 1.555,-0.344 3.139,0.175 4.518,1.061 0.74,-0.744 1.288,-1.295 1.288,-1.295 4.572,-3.939 8.844,-3.16 11.36,-0.139 l 0.198,0.238 c 0.601,-0.744 1.202,-1.487 1.202,-1.487 1.113,-1.377 6.718,-1.276 8.83,-0.819 3.455,0.746 6.749,3.487 8.114,6.756 1.249,2.994 0.596,7.134 -2.861,8.437 -0.029,0.011 -0.057,0.021 -0.086,0.031 1.096,7.731 -1.392,16.834 -1.872,18.53 -1.254,4.435 -3.081,8.524 -6.356,12 -2.834,3.008 -6.103,5.315 -9.816,7.211 -3.417,1.745 -7.579,2.5 -10.702,4.796 -2.111,1.552 -7.465,12.939 -7.965,16.363 0,0 -0.067,0.461 -0.174,1.206 -10.977,-4.304 -24.302,-9.561 -35.54,-13.292 l 3.766,-6.869 2.31,-3.797 c 0.636,-1.154 1.337,-2.633 2.056,-4.303 z"
           id="path422"
           style="stroke-width:1.99254" />
        <path
           class="j"
           d="m 91.558,74.066 c 2.385,-1.992 5.519,-2.921 7.758,-0.379 2.05,2.328 2.78,5.81 3.387,8.757 0.59,2.863 1.248,5.857 1.27,8.738 0.02,2.665 -0.621,5.016 -3.416,5.826 -2.961,0.858 -1.702,5.492 1.276,4.629 3.282,-0.951 5.673,-3.335 6.516,-6.667 0.777,-3.071 0.283,-6.152 -0.209,-9.219 -0.512,-3.186 -1.035,-6.401 -2.112,-9.455 -1.101,-3.122 -2.792,-6.39 -5.856,-7.98 -4.208,-2.183 -8.61,-0.483 -12.007,2.354 -0.995,0.831 -0.859,2.535 0,3.394 0.985,0.985 2.396,0.834 3.394,0 v 0 z"
           id="path424"
           style="stroke-width:1.99254" />
        <path
           class="j"
           d="m 104.318,72.678 c 0.367,-0.413 -0.366,0.257 -0.047,0.018 0.072,-0.054 0.164,-0.07 0.236,-0.121 -0.435,0.309 -0.357,0.115 -0.164,0.082 0.212,-0.037 0.425,-0.126 0.636,-0.174 0.174,-0.039 1.067,-0.155 0.465,-0.098 1.133,-0.107 2.26,-0.154 3.398,-0.106 0.502,0.021 1.001,0.061 1.5,0.112 0.636,0.065 -0.419,-0.097 0.142,0.023 0.271,0.058 0.542,0.107 0.81,0.18 0.322,0.087 0.638,0.193 0.951,0.308 0.465,0.17 0.223,0.095 0.127,0.05 0.154,0.07 0.307,0.145 0.458,0.222 0.304,0.156 0.602,0.325 0.892,0.507 0.145,0.091 0.29,0.186 0.431,0.283 -0.012,-0.008 0.57,0.428 0.342,0.245 1.16,0.93 1.856,1.743 2.507,2.914 0.141,0.254 0.276,0.514 0.392,0.78 -0.161,-0.369 0.089,0.288 0.129,0.424 0.078,0.265 0.131,0.534 0.19,0.804 0.099,0.452 0.008,0.077 0,-0.021 0.016,0.208 0.033,0.414 0.037,0.622 0.005,0.278 -0.013,0.552 -0.03,0.828 0.031,-0.52 -0.045,0.217 -0.083,0.375 -0.065,0.264 -0.146,0.523 -0.244,0.776 0.184,-0.475 -0.183,0.291 -0.26,0.416 -0.037,0.061 -0.294,0.397 -0.107,0.167 0.188,-0.232 -0.094,0.094 -0.144,0.142 -0.099,0.095 -0.198,0.19 -0.298,0.284 -0.26,0.244 0.297,-0.182 -0.013,0.008 -0.122,0.075 -0.244,0.152 -0.367,0.225 -0.053,0.031 -0.464,0.224 -0.216,0.12 0.254,-0.106 -0.194,0.058 -0.254,0.074 -0.199,0.055 -0.483,0.062 -0.129,0.046 -0.145,0.007 -0.29,-0.002 -0.434,0.006 -0.56,0.028 0.321,0.122 -0.224,-0.026 -0.324,-0.088 -0.645,-0.165 -0.963,-0.274 -0.69,-0.236 -1.355,-0.539 -2.031,-0.811 -1.641,-0.659 -3.269,-0.932 -5.022,-0.611 -1.276,0.233 -1.998,1.781 -1.676,2.952 0.369,1.341 1.673,1.91 2.952,1.676 -0.435,0.08 0.029,-0.006 0.154,-0.002 0.187,0.005 0.371,0.003 0.558,0.022 -0.464,-0.048 0.419,0.12 0.57,0.165 0.774,0.231 1.512,0.565 2.258,0.87 1.587,0.648 3.219,1.03 4.934,0.694 3.543,-0.696 5.638,-4.109 5.856,-7.499 0.218,-3.39 -1.555,-6.668 -3.967,-8.941 -2.471,-2.33 -5.488,-3.614 -8.852,-3.881 -1.485,-0.118 -2.988,-0.107 -4.467,0.079 -1.502,0.189 -3.262,0.477 -4.327,1.675 -0.86,0.969 -0.955,2.439 0,3.394 0.876,0.876 2.53,0.973 3.394,0 v 0 z"
           id="path426"
           style="stroke-width:1.99254" />
        <path
           class="j"
           d="m 114.487,88.768 c 0.077,4.866 -0.713,9.721 -2.025,14.399 -1.485,5.294 -4.017,9.778 -8.215,13.387 -2.128,1.83 -4.551,3.345 -7.063,4.589 -2.492,1.234 -5.214,1.938 -7.74,3.106 -1.869,0.864 -3.417,1.889 -4.629,3.545 -1.032,1.41 -1.87,2.967 -2.669,4.517 -1.098,2.129 -2.087,4.315 -2.991,6.533 -0.628,1.541 -1.299,3.151 -1.563,4.804 -0.204,1.278 0.329,2.582 1.676,2.952 1.143,0.314 2.747,-0.389 2.952,-1.676 0.538,-3.37 2.229,-6.531 3.735,-9.529 0.805,-1.603 1.649,-3.206 2.661,-4.69 0.112,-0.164 0.227,-0.327 0.344,-0.488 -0.042,0.057 -0.32,0.377 -0.051,0.068 0.156,-0.179 0.307,-0.366 0.486,-0.523 0.051,-0.045 0.692,-0.441 1.035,-0.636 0.639,-0.364 1.306,-0.69 1.985,-0.975 2.645,-1.111 5.396,-1.903 7.942,-3.25 2.602,-1.377 5.052,-3.033 7.285,-4.953 4.428,-3.807 7.343,-8.684 9.072,-14.229 1.694,-5.432 2.663,-11.262 2.573,-16.951 -0.049,-3.086 -4.849,-3.095 -4.8,0 z"
           id="path428"
           style="stroke-width:1.99254" />
        <path
           class="j"
           d="m 79.383,88.836 c 0.439,1.546 0.938,3.08 1.291,4.649 0.325,1.446 0.386,2.931 0.616,4.394 0.397,2.525 1.204,5.079 2.842,7.082 3.443,4.207 10.039,2.688 12.998,-1.305 1.648,-2.224 2.031,-5.065 1.759,-7.76 C 98.563,92.662 97.948,89.412 97.4,86.209 96.479,80.82 94.869,75.146 90.173,71.855 87.438,69.939 84.397,69.691 81.37,71.009 c -2.735,1.191 -5.212,3.201 -6.288,6.042 -0.459,1.212 0.509,2.632 1.676,2.952 1.349,0.371 2.491,-0.459 2.952,-1.676 0.499,-1.319 2.451,-2.494 3.773,-3.039 1.587,-0.655 2.907,-0.3 4.268,0.711 3.251,2.418 4.191,6.918 4.878,10.674 0.439,2.398 0.76,4.818 1.161,7.222 0.326,1.952 0.741,4.279 -0.036,6.087 -0.597,1.39 -1.782,2.184 -3.263,2.574 -1.403,0.37 -2.129,0.116 -2.846,-0.856 -1.145,-1.552 -1.564,-3.695 -1.79,-5.568 -0.359,-2.97 -1.028,-5.698 -1.843,-8.573 -0.842,-2.967 -5.475,-1.706 -4.629,1.276 v 0 z"
           id="path430"
           style="stroke-width:1.99254" />
        <path
           class="j"
           d="M 79.093,75.992 C 76.627,73.86 73.865,71.83 70.52,71.503 c -2.894,-0.282 -5.645,1.268 -7.751,3.128 -4.057,3.584 -4.917,9.822 -5.681,14.876 -0.253,1.673 -0.465,3.355 -0.564,5.045 -0.031,0.521 -0.031,1.044 -0.065,1.565 -0.007,0.107 -0.019,0.214 -0.026,0.322 -0.04,0.69 0.044,-0.184 -0.032,0.275 -0.291,1.758 -0.728,3.488 -1.209,5.203 -1.268,4.521 -2.826,8.978 -4.613,13.32 -1.28,3.11 -2.933,5.988 -4.694,8.883 -1.61,2.646 2.54,5.061 4.145,2.423 1.368,-2.249 2.726,-4.443 3.813,-6.846 1.846,-4.081 3.409,-8.299 4.784,-12.56 1.116,-3.462 2.274,-7.056 2.606,-10.698 0.462,-5.063 0.75,-10.44 2.687,-15.224 0.826,-2.039 2.316,-3.551 4.316,-4.533 2.69,-1.322 5.518,1.024 7.463,2.705 2.326,2.011 5.736,-1.369 3.394,-3.394 v 0 z"
           id="path432"
           style="stroke-width:1.99254" />
        <path
           class="j"
           d="m 68.322,87.982 c 0.02,4.62 5.026,6.615 8.656,7.956 0.39,0.144 0.781,0.286 1.17,0.434 0.165,0.063 0.329,0.13 0.494,0.195 0.257,0.101 -0.672,-0.306 -0.287,-0.119 0.067,0.032 0.135,0.062 0.202,0.095 1.126,0.55 2.648,0.343 3.284,-0.861 0.57,-1.079 0.343,-2.695 -0.861,-3.284 -1.378,-0.673 -2.864,-1.109 -4.282,-1.688 -0.09,-0.037 -0.183,-0.09 -0.277,-0.114 -0.061,-0.016 0.565,0.244 0.342,0.144 -0.046,-0.021 -0.093,-0.04 -0.139,-0.06 -0.201,-0.088 -0.401,-0.179 -0.599,-0.273 -0.394,-0.187 -0.782,-0.387 -1.16,-0.606 -0.17,-0.099 -0.338,-0.202 -0.503,-0.309 -0.154,-0.1 -0.342,-0.299 -0.512,-0.357 0.129,0.045 0.495,0.395 0.192,0.143 -0.071,-0.059 -0.14,-0.119 -0.209,-0.181 -0.144,-0.13 -0.283,-0.267 -0.413,-0.411 -0.018,-0.02 -0.192,-0.235 -0.198,-0.232 0.013,-0.006 0.328,0.459 0.245,0.315 -0.028,-0.048 -0.066,-0.093 -0.097,-0.14 -0.109,-0.164 -0.186,-0.342 -0.285,-0.511 -0.037,-0.063 0.221,0.638 0.106,0.226 -0.026,-0.094 -0.055,-0.186 -0.077,-0.28 -0.009,-0.041 -0.015,-0.083 -0.025,-0.123 -0.073,-0.279 0.062,0.374 0.05,0.387 0.025,-0.027 -0.015,-0.304 -0.016,-0.346 -0.006,-1.255 -1.1,-2.458 -2.4,-2.4 -1.3,0.058 -2.406,1.055 -2.4,2.4 v 0 z"
           id="path434"
           style="stroke-width:1.99254" />
      </g>
      <path
         class="j"
         d="m 61.498,242.574 c 2.953,-11.804 6.122,-23.555 9.163,-35.337 3.27,-12.671 6.419,-25.374 9.588,-38.07 1.777,-7.118 3.576,-14.231 5.268,-21.37 0.323,-1.362 -0.429,-2.464 -1.676,-2.952 -14.4,-5.634 -28.764,-11.44 -43.476,-16.224 -0.91,-0.296 -2.301,0.176 -2.71,1.103 -2.605,5.904 -5.174,11.823 -7.67,17.773 -2.91,6.938 -5.834,13.915 -8.132,21.085 -3.847,12.006 -7.993,23.91 -11.41,36.052 -0.864,3.071 -1.697,6.157 -2.369,9.277 -0.92,4.268 -2.053,8.42 -3.3,12.607 -0.759,2.549 -1.495,5.109 -2.057,7.711 -0.546,2.532 -0.796,5.095 -1.14,7.657 -0.603,4.487 -1.482,8.976 -1.572,13.515 -0.187,9.518 4.115,18.874 10.71,25.628 6.741,6.903 15.68,10.643 25.306,10.618 5.981,-0.016 11.942,-0.905 17.798,-2.062 4.601,-0.909 9.199,-1.894 13.69,-3.255 8.522,-2.582 16.814,-5.87 25.355,-8.393 1.708,-0.505 3.428,-0.973 5.169,-1.352 3.017,-0.657 1.74,-5.286 -1.276,-4.629 -8.181,1.783 -16.063,4.959 -23.979,7.63 -8.943,3.017 -18.124,5.357 -27.494,6.605 -5.022,0.669 -10.438,1.167 -15.448,0.171 C 25.56,285.512 21.6,283.678 18.08,281.119 11.158,276.087 5.742,267.567 4.928,258.966 4.545,254.92 5.086,250.88 5.67,246.881 c 0.711,-4.864 1.173,-9.733 2.427,-14.498 1.268,-4.818 2.987,-9.524 4.038,-14.398 0.632,-2.933 1.251,-5.852 2.024,-8.753 3.386,-12.718 7.646,-25.194 11.771,-37.685 4.126,-12.493 9.357,-24.583 14.645,-36.622 0.407,-0.926 0.815,-1.851 1.223,-2.776 l -2.71,1.103 c 14.712,4.784 29.077,10.589 43.476,16.224 l -1.676,-2.952 c -3.372,14.221 -7.013,28.381 -10.58,42.554 -2.902,11.531 -5.869,23.043 -8.859,34.552 -1.53,5.889 -3.104,11.768 -4.581,17.67 -0.75,2.997 3.878,4.276 4.629,1.276 v 0 z"
         id="path437"
         style="stroke-width:1.99254" />
      <g
         id="f"
         style="stroke-width:1.99254">
        <path
           class="j"
           d="m 171.447,143.731 c 3.409,1.8 7.082,2.546 10.935,2.521 3.853,-0.025 7.83,-0.763 10.935,-3.182 1.023,-0.797 0.837,-2.557 0,-3.394 -1.01,-1.01 -2.368,-0.799 -3.394,0 0.696,-0.542 0.046,-0.051 -0.132,0.063 -0.224,0.144 -0.456,0.277 -0.692,0.401 -0.142,0.074 -0.922,0.418 -0.375,0.198 -0.314,0.127 -0.632,0.243 -0.955,0.347 -1.962,0.631 -3.673,0.78 -5.746,0.768 -2.022,-0.012 -3.576,-0.168 -5.485,-0.739 -0.35,-0.105 -0.691,-0.229 -1.035,-0.348 -0.113,-0.039 -0.222,-0.089 -0.334,-0.13 0.593,0.219 0.083,0.037 -0.031,-0.016 -0.428,-0.201 -0.85,-0.412 -1.268,-0.633 -1.146,-0.605 -2.61,-0.291 -3.284,0.861 -0.634,1.084 -0.289,2.676 0.861,3.284 v 0 z"
           id="path439"
           style="stroke-width:1.99254" />
        <path
           class="j"
           d="m 181.394,117.671 c 0.488,1.86 0.956,3.75 1.236,5.655 l -0.086,-0.638 c 0.033,0.261 0.048,0.518 0.021,0.781 l 0.086,-0.638 c -0.018,0.121 -0.045,0.235 -0.086,0.351 l 0.242,-0.573 c -0.036,0.082 -0.074,0.151 -0.124,0.226 l 0.375,-0.486 c -0.058,0.071 -0.113,0.125 -0.185,0.182 l 0.486,-0.375 c -0.143,0.092 -0.294,0.166 -0.448,0.237 l 0.573,-0.242 c -0.247,0.103 -0.491,0.178 -0.755,0.22 l 0.638,-0.086 c -0.238,0.028 -0.471,0.026 -0.709,-10e-4 l 0.638,0.086 c -0.267,-0.037 -0.529,-0.102 -0.797,-0.138 -0.67,-0.09 -1.239,-0.115 -1.849,0.242 -0.498,0.291 -0.973,0.862 -1.103,1.434 -0.14,0.614 -0.11,1.304 0.242,1.849 0.312,0.484 0.835,1.022 1.434,1.103 0.564,0.076 1.111,0.221 1.684,0.246 0.856,0.037 1.658,-0.22 2.425,-0.569 0.936,-0.426 1.663,-1.24 1.913,-2.249 0.21,-0.852 0.117,-1.625 -0.027,-2.479 -0.308,-1.822 -0.729,-3.627 -1.197,-5.414 -0.318,-1.214 -1.729,-2.072 -2.952,-1.676 -1.25,0.404 -2.018,1.651 -1.676,2.952 v 0 z"
           id="path441"
           style="stroke-width:1.99254" />
        <path
           class="j"
           d="m 151.013,101.79 c -0.944,3.069 -0.329,10.128 5.485,10.729 7.684,-0.046 8.093,-8.581 5.506,-12.593 -2.118,-3.285 -8.345,-4.652 -10.991,1.865 z"
           id="path443"
           style="stroke-width:1.99254" />
        <path
           class="j"
           d="m 212.544,101.79 c 0.944,3.069 0.329,10.128 -5.484,10.728 -7.684,-0.046 -8.093,-8.581 -5.507,-12.594 2.118,-3.285 8.345,-4.652 10.991,1.865 z"
           id="path445"
           style="stroke-width:1.99254" />
      </g>
    </g>
  </g>
  <text
     xml:space="preserve"
     style="font-weight:bold;font-size:26.6667px;line-height:26.6079px;font-family:Meiryo;-inkscape-font-specification:'Meiryo, Bold';text-align:center;text-anchor:middle;display:inline;opacity:1;mix-blend-mode:normal;fill:#ffffff;fill-opacity:1;stroke-width:2.46169;stroke-linecap:round;stroke-linejoin:bevel;stroke-dasharray:none;filter:url(#filter1387)"
     x="153.44797"
     y="226.14839"
     id="text696"
     transform="matrix(1.2688045,0,0,1.269289,-43.810548,-50.477916)"><tspan
       sodipodi:role="line"
       x="153.44797"
       y="226.14839"
       id="tspan690"
       style="stroke-width:2.46169">工事検査用</tspan><tspan
       sodipodi:role="line"
       x="153.44797"
       y="252.75629"
       id="tspan692"
       style="stroke-width:2.46169">PDF作成</tspan><tspan
       sodipodi:role="line"
       x="153.44797"
       y="279.3642"
       id="tspan694"
       style="stroke-width:2.46169">アプリ</tspan></text>
  <text
     xml:space="preserve"
     style="font-weight:bold;font-size:33.8413px;line-height:33.7667px;font-family:Meiryo;-inkscape-font-specification:'Meiryo, Bold';text-align:center;text-anchor:middle;display:inline;opacity:1;fill:#d30000;fill-opacity:1;stroke:#ffffff;stroke-width:0.724;stroke-linecap:round;stroke-linejoin:bevel;stroke-dasharray:none;stroke-opacity:1"
     x="151.91006"
     y="236.65543"
     id="text680"
     transform="scale(0.99980913,1.0001909)"><tspan
       sodipodi:role="line"
       x="151.91006"
       y="236.65543"
       id="tspan682"
       style="fill:#d30000;fill-opacity:1;stroke:#ffffff;stroke-width:0.724;stroke-opacity:1">工事検査用</tspan><tspan
       sodipodi:role="line"
       x="151.91006"
       y="270.42212"
       id="tspan686"
       style="fill:#d30000;fill-opacity:1;stroke:#ffffff;stroke-width:0.724;stroke-opacity:1">PDF作成</tspan><tspan
       sodipodi:role="line"
       x="151.91006"
       y="304.18881"
       id="tspan688"
       style="fill:#d30000;fill-opacity:1;stroke:#ffffff;stroke-width:0.724;stroke-opacity:1">アプリ</tspan></text>
</svg>
